<svg xmlns="http://www.w3.org/2000/svg" xmlns:xlink="http://www.w3.org/1999/xlink" version="1.1" width="512px" height="512px" style="shape-rendering:geometricPrecision; text-rendering:geometricPrecision; image-rendering:optimizeQuality; fill-rule:evenodd; clip-rule:evenodd">
<g><path style="opacity:0.992" fill="#6c26b3" d="M 232.5,-0.5 C 247.833,-0.5 263.167,-0.5 278.5,-0.5C 368.144,10.3879 435.644,54.7213 481,132.5C 497.695,163.971 507.861,197.304 511.5,232.5C 511.5,247.833 511.5,263.167 511.5,278.5C 500.612,368.144 456.279,435.644 378.5,481C 347.029,497.695 313.696,507.861 278.5,511.5C 263.167,511.5 247.833,511.5 232.5,511.5C 142.856,500.612 75.3562,456.279 30,378.5C 13.3053,347.029 3.1386,313.696 -0.5,278.5C -0.5,263.167 -0.5,247.833 -0.5,232.5C 10.3875,142.857 54.7208,75.3573 132.5,30C 163.971,13.3053 197.304,3.1386 232.5,-0.5 Z M 204.5,95.5 C 259.148,92.5695 300.648,114.236 329,160.5C 353.607,212.178 347.941,260.178 312,304.5C 279.135,337.9 239.302,351.4 192.5,345C 179.695,353.639 167.029,362.472 154.5,371.5C 153.951,356.777 153.118,342.111 152,327.5C 106.496,295.013 87.8294,251.013 96,195.5C 110.991,139.003 147.158,105.669 204.5,95.5 Z M 347.5,149.5 C 403.615,183.074 425.448,232.074 413,296.5C 403.459,327.37 385.459,352.036 359,370.5C 357.716,385.099 357.05,399.765 357,414.5C 344.412,405.79 331.912,396.956 319.5,388C 284.469,392.66 251.803,385.827 221.5,367.5C 279.554,362.873 322.387,335.206 350,284.5C 369.958,239.139 369.124,194.139 347.5,149.5 Z"/></g>
</svg>